<svg xmlns="http://www.w3.org/2000/svg" viewBox="0 0 533.5 544.3" width="20" height="20">
  <path fill="#4285f4" d="M533.5 278.4c0-17.4-1.6-34.1-4.6-50.4H272v95.3h146.9c-6.4 34.5-25.4 63.6-54.3 83.1v68h87.7c51.3-47.2 81.2-116.7 81.2-196z"></path>
  <path fill="#34a853" d="M272 544.3c73.4 0 135-24.4 180-66.2l-87.7-68c-24.3 16.3-55.2 26-92.3 26-70.9 0-131-47.9-152.5-112.1h-90v70.5c44.8 89.6 137.3 149.8 242.5 149.8z"></path>
  <path fill="#fbbc04" d="M119.5 324c-10.3-30.5-10.3-63.4 0-93.9v-70.5h-90c-39 76.2-39 166.2 0 242.4l90-70.5z"></path>
  <path fill="#ea4335" d="M272 107.7c38.6 0 73.3 13.3 100.8 39.5l75.4-75.4C406.9 24.4 345.4 0 272 0 166.8 0 74.3 60.1 29.5 149.8l90 70.5C141 155.6 201.1 107.7 272 107.7z"></path>
</svg>
